<svg xmlns="http://www.w3.org/2000/svg" xmlns:lucid="lucid" width="500.26" height="390.16"><path d="M291.63 54.78c23 8.18 42.5 22.2 57 40.92l.5.4c16.5 21.42 26 47.93 26 76.76 0 58.46 12.5 73.27 24 86.9 12 14.82 23.5 28.07 23.5 71.72 0 5.85-5 10.52-10.5 10.52h-97.5c-4 12.47-11 23.4-21 31.96-11.5 9.74-27 15.98-43.5 15.98s-32-6.24-43.5-15.98c-10-8.57-17-19.5-21-31.96h-97.5c-5.5 0-10.5-4.67-10.5-10.52 0-43.65 11.5-56.9 23.5-71.7 11.5-13.65 24-28.46 24-86.92 0-29.22 10-55.73 26.5-77.16 14.5-18.32 34-32.74 57-40.92-1-3.5-1.5-7.4-1.5-11.3 0-12.08 4.5-22.6 12.5-30.4 8-8.18 18.5-12.86 30.5-12.86s22.5 4.68 30.5 12.86c8 7.8 12.5 18.32 12.5 30.4 0 3.9-.5 7.8-1.5 11.3zm155 174.6c-3 5.06-9.5 6.62-14.5 3.9-5-3.13-6.5-9.36-4-14.43 7.5-12.86 9-27.28 5.5-40.53s-12-24.94-25-32.35c-5-2.72-6.5-9.35-3.5-14.03 3-5.06 9-7 14-3.9 18 10.14 30 26.5 35 44.82 4.5 18.32 2.5 38.6-7.5 56.5zm36 24.16c-4 3.9-10.5 3.9-15 0-3.5-3.9-4-9.36-1-13.25 13-23 15.5-49.5 9-73.28-6-23.77-21.5-45.6-45-58.85l-2-1.56c-4-4.27-4-10.9 0-14.8 3.5-3.9 9.5-4.28 13.5-1.17 27.5 16.37 46 42.1 54 70.93 7.5 29.23 4.5 60.8-11.5 88.86-.5 1.17-1 1.95-2 3.12zm-410.5-34.7c2.5 5.08 1 11.3-4 14.43-5 2.73-11.5 1.17-14.5-3.9-10-17.92-12-38.2-7-56.5 4.5-18.32 16.5-34.7 34.5-44.82 5-3.12 11.5-1.17 14 3.9 3 4.67 1.5 11.3-3.5 14.02-13 7.4-21.5 19.1-25 32.35s-2 27.67 5.5 40.53zm-38.5 21.45c3 3.88 2.5 9.34-1 13.24-4.5 3.9-11 3.9-15 0-1-1.17-1.5-1.95-2-3.12-16-28.06-19-59.63-11.5-88.86 7.5-28.84 26.5-54.56 54-70.93 4-3.1 10-2.72 13.5 1.17 4.5 3.9 4.5 10.53 0 14.8-.5.4-1 1.18-2 1.57-23 13.25-39 35.08-45 58.85-6.5 23.77-4 50.27 9 73.27zm298.5-131.74c-14-17.93-34-31.18-57-36.63-1-.4-2.5-.78-3.5-1.56-5-3.5-6-9.74-3-14.8 1-1.57 2-3.52 3-5.86.5-1.94.5-3.88.5-6.22 0-6.24-2.5-11.7-6.5-15.6-4-4.28-9.5-6.62-15.5-6.62s-11.5 2.34-15.5 6.63c-4 3.9-6.5 9.34-6.5 15.58 0 1.95 0 4.28.5 6.23 1 2.35 2 4.3 3 5.86l1.5 3.5c1.5 5.46-2 11.3-7.5 12.48-23 5.84-43 19.1-57.5 37.02-13.5 17.54-22 40.14-22 64.3 0 66.26-15 84.18-28.5 100.55-9 10.14-17 19.9-18.5 47.56h302c-1.5-27.67-9.5-37.42-18-47.55-14-16.36-29-34.28-29-100.54 0-24.16-8-46.37-21.5-63.9l-.5-.4z" stroke="#000" stroke-opacity="0" stroke-width=".44" lucid:page-tab-id="0_0"/></svg>