<svg xmlns="http://www.w3.org/2000/svg" xmlns:lucid="lucid" width="500.44" height="499.15"><g lucid:page-tab-id="0_0" stroke="#000" stroke-opacity="0" stroke-width=".44"><path d="M358.72 115.42c4 0 7.5-3.5 7-7.48-2-43.4-37.5-77.3-81-77.3-4.5 0-7.5 3.5-7.5 7.48 0 4 3 7.48 7.5 7.48 35 0 64 27.43 66 62.84 0 4 3.5 7.48 7.5 7.48 0-.5.5-.5.5-.5zM269.22 286.98c-6.5-5.5-15.5-7.98-24.5-6.48-11.5 2-21 11.47-23.5 22.94-2.5 10.47 1 20.44 8 27.92l-5 29.93c-.5 2.98.5 5.97 2 8.46 2 2.5 5 3.5 8 3.5h32c3 0 6-1 8-3.5s2.5-5.48 2-8.47l-5-29.94c5.5-5.48 9-13.46 9-21.44 0-8.98-4-16.96-11-22.94zm-13.5 43.9l4.5 27.4h-20l4.5-27.4c.5-3.5-.5-7-3.5-9.5-4.5-3.48-6.5-8.97-5.5-14.95 1.5-5.5 6-9.98 12-10.97 4.5-.5 8.5.5 12 3.5 3 2.48 5 6.47 5 10.96 0 4.5-2 8.48-5.5 11.47-2.5 2.48-4 5.97-3.5 9.47z"/><path d="M458.22 436.1v-27.44c0-16.95-13.5-30.42-30-30.42h-12c-8.5 0-15-6.48-15-14.96v-40.4c55.5-5.98 99-54.35 99-112.2 0-59.35-46.5-107.72-104.5-111.22-6.5-56.35-54-99.24-111-99.24-39.5 0-75.5 20.45-95.5 53.86-8.5-2.5-17-3.5-25.5-3.5-48 0-88.5 34.42-96.5 80.8-39.5 13.97-67 51.87-67 94.26 0 54.86 43.5 97.74 99 98.24v39.4c0 8.48-6.5 14.96-15 14.96h-12c-16.5 0-30 13.47-30 30.42v27.43c-14 3.48-24.5 15.95-24.5 30.9 0 17.47 14.5 31.93 32 31.93s32-14.46 32-31.92c0-14.95-10.5-27.42-24.5-30.9v-27.44c0-8.47 6.5-15.46 15-15.46h12c16.5 0 30-13.46 30-29.92v-39.4h32v59.85c0 16.95 14 30.92 31.5 30.92h145c17 0 31-13.97 31-30.92v-59.85h32v39.4c0 16.46 14 29.92 30.5 29.92h11.5c8.5 0 15.5 7 15.5 15.46v27.43c-14 3.48-24.5 15.95-24.5 30.9 0 17.47 14.5 31.93 32 31.93s32-14.46 32-31.92c0-14.95-10.5-27.42-24.5-30.9zM66.72 467c0 9.5-8 16.97-17 16.97s-17-7.48-17-16.96c0-9.46 8-16.94 17-16.94s17 7.48 17 16.95zm272-83.27c0 8.98-7 15.96-16 15.96h-145c-9 0-16-7-16-15.97v-114.2c0-8.48 7-15.96 16-15.96h145c9 0 16 7.48 16 15.95zm-30.5-145.13h-116v-40.4c0-31.9 26-57.84 58-57.84 15.5 0 30 5.98 41 16.95 11 11 17 25.45 17 40.9v40.4zm15.5 0v-40.4c0-19.44-8-37.9-21.5-51.86-14-13.46-32.5-21.44-52-21.44-40.5 0-73 32.9-73 73.3v40.4c-17 .5-30.5 14.47-30.5 31.42v38.9h-46.5c-47.5 0-84.5-36.4-84.5-83.28 0-36.9 24.5-70.32 60.5-80.8 3-1 5-3.48 5.5-6.48 5-41.4 40.5-72.3 82-72.3 9.5 0 18.5 1.5 27 3.98 3.5 1.5 7.5 0 9-3.5 17-31.4 49.5-51.36 85-51.36 51.5 0 94 40.4 96.5 91.77 0 3.98 3.5 6.98 7.5 6.98 53.5 0 96.5 43.38 96.5 96.75 0 53.86-43 97.74-96.5 97.74h-34.5v-38.9c0-16.95-14-30.42-30.5-30.92zm127 245.37c-9 0-17-7.98-17-16.96 0-9.46 8-16.94 17-16.94 9.5 0 17 7.48 17 16.95 0 9-7.5 16.97-17 16.97z"/></g></svg>