<svg xmlns="http://www.w3.org/2000/svg" xmlns:lucid="lucid" width="401" height="401"><g lucid:page-tab-id="0_0" stroke="#000" stroke-opacity="0"><path d="M.5.5h400v400H.5V.5z"/><path d="M85.8 190.62c5.5 0 9.9 4.42 9.9 9.88 0 5.46-4.4 9.88-9.9 9.88s-10.2-4.42-10.2-9.88c0-5.46 4.7-9.88 10.2-9.88zm119.98 130c-58.35 0-108.7-42.9-119.16-100.1 8.8-.52 16.23-6.76 18.43-15.08h30.83v-9.88h-30.83c-2.2-8.32-9.63-14.56-18.43-15.08 10.45-56.42 61.64-100.1 119.16-100.1 21.74 0 44.3 8.32 67.15 24.18l5.78-8.06c-24.76-17.16-49.26-26-72.92-26-63.57 0-120.27 49.4-129.62 112.58-6.33 3.38-10.46 9.88-10.46 17.42 0 7.54 4.13 14.04 10.46 17.42C85.5 282.14 141.1 330.5 205.78 330.5c26.97 0 54.76-9.1 77.88-26l-5.78-8.06c-21.47 15.6-47.06 24.18-72.1 24.18zm-54.5-137.8c9.36 2.08 20.92 2.6 29.45 2.6 8.26 0 19.27-.52 28.35-2.34l-22.84 45.24c-.28.52-.55 1.3-.55 2.08v22.36c-3.87 2.6-10.75 6.76-14.87 7.54v-29.9c0-.52-.28-1.3-.55-1.82l-19-45.76zm29.45-17.42c20.1 0 30.83 3.12 34.4 5.2-3.57 1.82-14.3 4.94-34.4 4.94-20.1 0-30.82-3.12-34.12-4.94 3.3-2.08 14.04-5.2 34.13-5.2zm-14.86 105.04h5.51c6.05-.78 14.03-5.46 20.64-9.88l1.37-.78c1.64-1.04 2.47-2.6 2.47-4.16V231.7l27.8-55.64c1.37-1.56 2.2-3.38 2.2-5.46 0-13.26-28.35-15.08-45.14-15.08-16.78 0-44.85 1.82-44.85 15.08 0 1.82.55 3.38 1.37 4.68l23.4 56.16v34.06c0 2.86 2.47 4.94 5.22 4.94zm145.03-4.94c5.5 0 9.9 4.42 9.9 9.88 0 5.72-4.4 10.14-9.9 10.14s-9.9-4.42-9.9-10.14c0-5.46 4.4-9.88 9.9-9.88zm0-150.02c5.5 0 9.9 4.42 9.9 10.14 0 5.46-4.4 9.88-9.9 9.88s-9.9-4.42-9.9-9.88c0-5.72 4.4-10.14 9.9-10.14zm9.9 75.14c5.5 0 10.2 4.42 10.2 9.88 0 5.46-4.7 9.88-10.2 9.88-5.5 0-9.9-4.42-9.9-9.88 0-5.46 4.4-9.88 9.9-9.88zm-50.08 14.82h30.83c2.2 8.58 9.9 15.08 19.26 15.08 11.02 0 20.1-9.1 20.1-20.02s-9.08-20.02-20.1-20.02c-9.35 0-17.05 6.5-19.25 15.08h-30.83v-65h20.92c2.2 8.58 9.9 14.82 19.26 14.82 11 0 20.1-8.84 20.1-19.76 0-11.18-9.1-20.02-20.1-20.02-9.35 0-17.06 6.24-19.26 14.82h-25.87c-2.75 0-4.95 2.34-4.95 5.2v69.94h-34.95v9.88h34.95v69.94c0 2.86 2.2 5.2 4.95 5.2h25.87c2.2 8.58 9.9 14.82 19.26 14.82 11 0 20.1-8.84 20.1-20.02 0-10.92-9.1-19.76-20.1-19.76-9.35 0-17.06 6.24-19.26 14.82h-20.92v-65z" fill="#fff"/></g></svg>