<svg xmlns="http://www.w3.org/2000/svg" xmlns:xlink="http://www.w3.org/1999/xlink" xmlns:lucid="lucid" width="801.47" height="780.21"><g transform="translate(-179.78008409935907 110.20902945020335)" lucid:page-tab-id="0_0"><path d="M854.04 340c-60.72 0-57.12 27.75-57.12 27.75l.24 28.5h58.08V405h-81.36S735 400.25 735 464.75c0 64.25 34.08 62 34.08 62h20.16V497s-.96-35.75 33.6-35.75h57.6s32.4.5 32.4-32.75v-55.25s5.04-33.25-58.8-33.25zm-31.92 19.25c5.76 0 10.32 5 10.32 11s-4.56 11-10.32 11c-5.76 0-10.56-5-10.56-11s4.8-11 10.56-11z" stroke="#000" stroke-opacity="0" stroke-width="12.5" fill="url(#a)"/><path d="M855.96 590c60.72 0 57.12-27.75 57.12-27.75l-.24-28.5h-58.08V525h81.36S975 529.75 975 465.25c0-64.25-34.08-62-34.08-62h-20.16V433s.96 35.75-33.6 35.75h-57.6s-32.4-.5-32.4 32.75v55.25S792.12 590 855.96 590zm31.92-19.25c-5.76 0-10.32-5-10.32-11s4.56-11 10.32-11c5.76 0 10.56 5 10.56 11s-4.8 11-10.56 11z" stroke="#000" stroke-opacity="0" stroke-width="12.5" fill="url(#b)"/><path d="M720-90h250v240H720V-90z" stroke="#000" stroke-opacity="0" stroke-width=".24" fill="#f7df1e"/><path d="M888 97.44c5 7.92 11.5 13.68 23 13.68 9.75 0 16-4.56 16-11.04 0-7.68-6.25-10.56-17-14.88l-6-2.4c-16.75-6.96-28.25-15.84-28.25-34.08 0-17.04 13.5-29.76 34.5-29.76 15 0 25.75 5.04 33.5 18L925.5 48.24c-4.25-6.96-8.5-9.6-15.25-9.6S899 42.72 899 48.24c0 6.72 4.5 9.6 14.5 13.68l5.75 2.4c20 8.16 31.25 16.56 31.25 35.52 0 20.16-16.5 31.44-38.75 31.44-22 0-36-10.08-43-23.04zm-83 1.92c3.75 6.48 7 11.76 15 11.76 7.75 0 12.75-2.88 12.75-14.16v-76.8h23.5V97.2c0 23.28-14.25 34.08-35.25 34.08-18.75 0-29.75-9.36-35.25-20.64z" stroke="#000" stroke-opacity="0" stroke-width=".24"/><path d="M330 340c-3.6 0-7.44.78-10.56 2.6l-99.12 57.2C214.08 403.7 210 410.72 210 418v103.74c0 7.54 4.08 14.56 10.32 18.2l26.16 15.08c12.48 5.98 17.04 5.98 22.8 5.98 18.72 0 29.28-11.18 29.28-30.68V423.2c0-1.82-1.2-3.12-2.88-3.12H283.2c-1.68 0-2.88 1.3-2.88 3.12v106.86c0 8.84-9.12 17.42-23.76 10.14l-27.36-15.6c-.96-.52-1.44-1.82-1.44-2.86V418c0-1.04.48-2.08 1.44-2.6l99.12-57.2c.96-.78 2.16-.78 3.12 0l99.12 57.2c.96.52 1.68 1.56 1.68 2.6v103.74c0 1.04-.72 2.34-1.44 2.86l-99.36 57.2c-.72.52-2.16.52-3.12 0l-25.44-15.08c-.72-.52-1.68-.52-2.4-.26-6.96 4.16-8.4 4.42-14.88 6.76-1.68.52-4.08 1.56.72 4.42l33.12 19.5c3.36 1.82 6.96 2.86 10.56 2.86 3.6 0 7.2-1.04 10.32-2.86l99.36-57.2c6.24-3.64 10.32-10.66 10.32-18.2V418c0-7.28-4.08-14.3-10.32-17.94l-99.36-57.46c-3.12-1.82-6.72-2.6-10.32-2.6zm26.64 80.08c-28.32 0-45.12 11.96-45.12 31.98 0 21.58 16.56 27.56 43.92 30.42 32.4 3.12 35.04 8.06 35.04 14.3 0 11.18-8.88 15.86-29.76 15.86-26.4 0-32.16-6.76-34.08-19.76-.24-1.3-1.44-2.34-2.88-2.34H310.8c-1.44 0-2.64 1.3-2.64 2.86 0 16.64 9.12 36.66 52.56 36.66 31.2 0 49.2-12.48 49.2-34.06 0-21.32-14.4-27.04-44.88-31.2-30.96-4.16-33.84-6.24-33.84-13.26 0-5.98 2.64-14.04 25.44-14.04 20.16 0 27.84 4.42 30.96 18.2.24 1.3 1.44 2.34 2.88 2.34h12.72c.96 0 1.68-.52 2.16-1.04.48-.52.72-1.3.72-2.34-1.92-23.4-17.76-34.58-49.44-34.58z" stroke="#000" stroke-opacity="0" stroke-width="19.23" fill="#93c746"/><path d="M209.68 166a6 6 0 0 1 6-6h228a6 6 0 0 1 6 6v48a6 6 0 0 1-6 6h-228a6 6 0 0 1-6-6z" fill="none"/><use xlink:href="#c" transform="matrix(1,0,0,1,209.68427657465884,160) translate(67.83333333333333 38)"/><path d="M725 166a6 6 0 0 1 6-6h228a6 6 0 0 1 6 6v48a6 6 0 0 1-6 6H731a6 6 0 0 1-6-6z" fill="none"/><use xlink:href="#d" transform="matrix(1,0,0,1,725,160) translate(26.77777777777777 38)"/><path d="M200 616a6 6 0 0 1 6-6h228a6 6 0 0 1 6 6v48a6 6 0 0 1-6 6H206a6 6 0 0 1-6-6z" fill="none"/><use xlink:href="#e" transform="matrix(1,0,0,1,200,610) translate(27.888888888888886 38)"/><path d="M725 606a6 6 0 0 1 6-6h228a6 6 0 0 1 6 6v48a6 6 0 0 1-6 6H731a6 6 0 0 1-6-6z" fill="none"/><use xlink:href="#f" transform="matrix(1,0,0,1,725,600) translate(72.33333333333334 38)"/><path d="M480 20c0 15.34-17.4 29.12-45.3 38.48-6.3 2.08-13.2 4.16-20.4 5.72 3 7.28 5.7 14.04 7.8 20.54 9.3 29.12 9.3 51.74-2.7 61.1-11.7 9.1-32.7 2.86-56.7-15.08-10.2-7.8-21.3-17.68-32.7-29.38-11.4 11.7-22.5 21.58-32.7 29.38-24 17.94-45 24.18-56.7 15.08-12-9.36-12-31.98-2.7-61.1 2.1-6.5 4.8-13.26 7.8-20.54-7.2-1.56-14.1-3.38-20.4-5.72C197.4 49.12 180 35.34 180 20c0-15.34 17.4-29.12 45.3-38.48 6.3-2.08 13.2-4.16 20.4-5.72-3-7.28-5.7-14.04-7.8-20.54-9.3-29.12-9.3-51.74 2.7-61.1 11.7-9.1 32.7-2.86 56.7 15.08 10.2 7.8 21.3 17.68 32.7 29.38 11.4-11.7 22.5-21.58 32.7-29.38 24-17.94 45-24.18 56.7-15.08 12 9.36 12 31.98 2.7 61.1-2.1 6.5-4.8 13.26-7.8 20.54 7.2 1.56 14.1 3.38 20.4 5.72C462.6-9.12 480 4.66 480 20zM330-4.18c-6.3 0-12 2.86-16.2 7.02-4.2 4.42-6.9 10.4-6.9 17.16s2.7 12.74 6.9 17.16c4.2 4.16 9.9 7.02 16.2 7.02 6.3 0 12-2.86 16.2-7.02 4.2-4.42 6.9-10.4 6.9-17.16s-2.7-12.74-6.9-17.16c-4.2-4.16-9.9-7.02-16.2-7.02zM341.4 8.3c-3-3.12-6.9-4.94-11.4-4.94s-8.4 1.82-11.4 4.94c-2.7 2.86-4.5 7.02-4.5 11.7s1.8 8.84 4.5 11.96c3 2.86 6.9 4.94 11.4 4.94s8.4-2.08 11.4-4.94c2.7-3.12 4.5-7.28 4.5-11.96 0-4.68-1.8-8.84-4.5-11.7zm-16.2 87.88c-6.9-7.28-13.8-15.08-20.4-23.66-18.9-1.04-36.3-3.38-52.2-6.5-3 7.28-5.7 14.3-8.1 21.06-8.4 26-9 45.76.3 52.78 9 7.28 27 1.04 48.3-15.08 10.2-7.54 21-17.16 32.1-28.6zm9.9-152.36c6.6 7.28 13.5 15.08 20.1 23.66 18.9 1.04 36.6 3.38 52.2 6.76 3.3-7.54 6-14.56 8.1-21.32 8.4-26 9-45.76-.3-52.78-9-7.02-27-.78-48.3 15.08-10.2 7.54-21 17.16-31.8 28.6zm76.2 38.74C405.9-5.48 399.3 7 391.8 20c7.5 13 14.1 25.48 19.5 37.44 7.8-1.56 14.7-3.64 21.3-5.72 24.9-8.58 40.5-19.76 40.5-31.72 0-11.96-15.6-23.14-40.5-31.46-6.6-2.34-13.5-4.42-21.3-5.98zm-23.7 44.2c-5.1 8.32-10.8 16.64-16.8 24.96-3 4.42-6.3 8.84-9.6 13 15.6-1.04 30-3.12 43.2-5.72-4.8-10.14-10.5-21.06-16.8-31.98zm-32.4 45.76c-6.6 8.58-13.5 16.38-20.1 23.66 10.8 11.44 21.6 21.06 31.8 28.6 21.6 15.86 39.3 22.36 48.3 15.08 9.3-7.02 8.7-26.78.3-52.78-2.1-6.76-4.8-13.78-8.1-21.32-15.6 3.38-33.3 5.72-52.2 6.76zM248.7 57.44c5.4-11.96 12-24.44 19.8-37.44-7.8-13-14.4-25.48-19.8-37.44-7.5 1.56-14.7 3.64-21.3 5.72C202.5-3.14 187.2 8.04 187.2 20c0 11.96 15.3 23.14 40.2 31.46 6.6 2.34 13.8 4.42 21.3 5.98zm24-44.2c5.1-8.32 10.5-16.64 16.5-24.96 3-4.42 6.3-8.84 9.6-13-15.6 1.04-30 3.12-42.9 5.72 4.5 10.14 10.2 21.06 16.8 31.98zm32.1-45.76c6.6-8.58 13.5-16.38 20.4-23.66-11.1-11.44-21.9-21.06-32.1-28.6-21.3-15.86-39.3-22.36-48.3-15.08-9.3 7.02-8.7 26.78-.3 52.78 2.4 6.76 5.1 13.78 8.1 21.32 15.9-3.38 33.3-5.72 52.2-6.76zM330-50.98c-5.1 5.72-10.5 11.7-15.6 17.94 5.1 0 10.5-.26 15.6-.26 5.4 0 10.5 0 15.6.26-5.1-6.24-10.5-12.22-15.6-17.94zM308.1-25.5c-4.5 5.98-9 11.96-13.2 18.2-6.6 9.1-12.6 18.2-18.3 27.3 5.7 9.1 11.7 18.2 18.3 27.56 4.2 5.98 8.7 12.22 13.2 17.94 7.2.26 14.4.52 21.9.52 7.5 0 14.7-.26 21.9-.52l13.5-17.94c6.3-9.36 12.6-18.46 18-27.56-5.4-9.1-11.7-18.2-18-27.3-4.5-6.24-9-12.22-13.5-18.2-7.2-.26-14.4-.52-21.9-.52-7.5 0-14.7.26-21.9.52zm-35.4 52.26C266.1 37.94 260.4 48.6 255.6 59c13.2 2.6 27.6 4.68 43.2 5.72-3.3-4.16-6.6-8.58-9.6-13-6-8.32-11.4-16.64-16.5-24.96zM330 90.98c5.4-5.72 10.5-11.7 15.6-17.94-5.1.26-10.2.26-15.6.26-5.1 0-10.5 0-15.6-.26 5.1 6.24 10.5 12.22 15.6 17.94zm57.6-77.74c6.3-11.18 12-21.84 16.8-32.24-13.2-2.6-27.6-4.68-42.9-5.72 3 4.16 6.3 8.58 9.6 13 5.7 8.32 11.4 16.64 16.5 24.96z" stroke="#000" stroke-opacity="0" stroke-width=".44" fill="#61dafb"/><defs><linearGradient gradientUnits="userSpaceOnUse" id="a" x1="753.43" y1="357.06" x2="880.41" y2="490.07"><stop offset="0%" stop-color="#387eb8"/><stop offset="100%" stop-color="#366994"/></linearGradient><linearGradient gradientUnits="userSpaceOnUse" id="b" x1="827.24" y1="437.47" x2="963.62" y2="573.88"><stop offset="0%" stop-color="#ffe052"/><stop offset="100%" stop-color="#ffc331"/></linearGradient><path d="M233-177c-1 41-23 64-60 70L243 0h-38l-65-103H63V0H30v-248c88 3 205-21 203 71zM63-129c60-2 137 13 137-47 0-61-80-42-137-45v92" id="g"/><path d="M100-194c63 0 86 42 84 106H49c0 40 14 67 53 68 26 1 43-12 49-29l28 8c-11 28-37 45-77 45C44 4 14-33 15-96c1-61 26-98 85-98zm52 81c6-60-76-77-97-28-3 7-6 17-6 28h103" id="h"/><path d="M141-36C126-15 110 5 73 4 37 3 15-17 15-53c-1-64 63-63 125-63 3-35-9-54-41-54-24 1-41 7-42 31l-33-3c5-37 33-52 76-52 45 0 72 20 72 64v82c-1 20 7 32 28 27v20c-31 9-61-2-59-35zM48-53c0 20 12 33 32 33 41-3 63-29 60-74-43 2-92-5-92 41" id="i"/><path d="M96-169c-40 0-48 33-48 73s9 75 48 75c24 0 41-14 43-38l32 2c-6 37-31 61-74 61-59 0-76-41-82-99-10-93 101-131 147-64 4 7 5 14 7 22l-32 3c-4-21-16-35-41-35" id="j"/><path d="M59-47c-2 24 18 29 38 22v24C64 9 27 4 27-40v-127H5v-23h24l9-43h21v43h35v23H59v120" id="k"/><g id="c"><use transform="matrix(0.1111111111111111,0,0,0.1111111111111111,0,0)" xlink:href="#g"/><use transform="matrix(0.1111111111111111,0,0,0.1111111111111111,28.777777777777775,0)" xlink:href="#h"/><use transform="matrix(0.1111111111111111,0,0,0.1111111111111111,51,0)" xlink:href="#i"/><use transform="matrix(0.1111111111111111,0,0,0.1111111111111111,73.22222222222223,0)" xlink:href="#j"/><use transform="matrix(0.1111111111111111,0,0,0.1111111111111111,93.22222222222223,0)" xlink:href="#k"/></g><path d="M153-248C145-148 188 4 80 4 36 3 13-21 6-62l32-5c4 25 16 42 43 43 27 0 39-20 39-49v-147H72v-28h81" id="l"/><path d="M108 0H70L1-190h34L89-25l56-165h34" id="m"/><path d="M185-189c-5-48-123-54-124 2 14 75 158 14 163 119 3 78-121 87-175 55-17-10-28-26-33-46l33-7c5 56 141 63 141-1 0-78-155-14-162-118-5-82 145-84 179-34 5 7 8 16 11 25" id="n"/><path d="M114-163C36-179 61-72 57 0H25l-1-190h30c1 12-1 29 2 39 6-27 23-49 58-41v29" id="o"/><path d="M24-231v-30h32v30H24zM24 0v-190h32V0H24" id="p"/><path d="M115-194c55 1 70 41 70 98S169 2 115 4C84 4 66-9 55-30l1 105H24l-1-265h31l2 30c10-21 28-34 59-34zm-8 174c40 0 45-34 45-75s-6-73-45-74c-42 0-51 32-51 76 0 43 10 73 51 73" id="q"/><g id="d"><use transform="matrix(0.1111111111111111,0,0,0.1111111111111111,0,0)" xlink:href="#l"/><use transform="matrix(0.1111111111111111,0,0,0.1111111111111111,20,0)" xlink:href="#i"/><use transform="matrix(0.1111111111111111,0,0,0.1111111111111111,42.22222222222222,0)" xlink:href="#m"/><use transform="matrix(0.1111111111111111,0,0,0.1111111111111111,62.22222222222222,0)" xlink:href="#i"/><use transform="matrix(0.1111111111111111,0,0,0.1111111111111111,84.44444444444444,0)" xlink:href="#n"/><use transform="matrix(0.1111111111111111,0,0,0.1111111111111111,111.11111111111111,0)" xlink:href="#j"/><use transform="matrix(0.1111111111111111,0,0,0.1111111111111111,131.11111111111111,0)" xlink:href="#o"/><use transform="matrix(0.1111111111111111,0,0,0.1111111111111111,144.33333333333334,0)" xlink:href="#p"/><use transform="matrix(0.1111111111111111,0,0,0.1111111111111111,153.11111111111111,0)" xlink:href="#q"/><use transform="matrix(0.1111111111111111,0,0,0.1111111111111111,175.33333333333334,0)" xlink:href="#k"/></g><path d="M30 0v-248h187v28H63v79h144v27H63v87h162V0H30" id="r"/><path d="M141 0L90-78 38 0H4l68-98-65-92h35l48 74 47-74h35l-64 92 68 98h-35" id="s"/><path d="M135-143c-3-34-86-38-87 0 15 53 115 12 119 90S17 21 10-45l28-5c4 36 97 45 98 0-10-56-113-15-118-90-4-57 82-63 122-42 12 7 21 19 24 35" id="t"/><path d="M33 0v-38h34V0H33" id="u"/><path d="M24-231v-30h32v30H24zM-9 49c24 4 33-6 33-30v-209h32V24c2 40-23 58-65 49V49" id="v"/><g id="e"><use transform="matrix(0.1111111111111111,0,0,0.1111111111111111,0,0)" xlink:href="#r"/><use transform="matrix(0.1111111111111111,0,0,0.1111111111111111,26.666666666666664,0)" xlink:href="#s"/><use transform="matrix(0.1111111111111111,0,0,0.1111111111111111,46.666666666666664,0)" xlink:href="#q"/><use transform="matrix(0.1111111111111111,0,0,0.1111111111111111,68.88888888888889,0)" xlink:href="#o"/><use transform="matrix(0.1111111111111111,0,0,0.1111111111111111,82.11111111111111,0)" xlink:href="#h"/><use transform="matrix(0.1111111111111111,0,0,0.1111111111111111,104.33333333333334,0)" xlink:href="#t"/><use transform="matrix(0.1111111111111111,0,0,0.1111111111111111,124.33333333333336,0)" xlink:href="#t"/><use transform="matrix(0.1111111111111111,0,0,0.1111111111111111,144.33333333333334,0)" xlink:href="#u"/><use transform="matrix(0.1111111111111111,0,0,0.1111111111111111,155.44444444444446,0)" xlink:href="#v"/><use transform="matrix(0.1111111111111111,0,0,0.1111111111111111,164.22222222222223,0)" xlink:href="#t"/></g><path d="M63-220v92h138v28H63V0H30v-248h175v28H63" id="w"/><path d="M24 0v-261h32V0H24" id="x"/><path d="M143 0L79-87 56-68V0H24v-261h32v163l83-92h37l-77 82L181 0h-38" id="y"/><g id="f"><use transform="matrix(0.1111111111111111,0,0,0.1111111111111111,0,0)" xlink:href="#w"/><use transform="matrix(0.1111111111111111,0,0,0.1111111111111111,24.333333333333332,0)" xlink:href="#x"/><use transform="matrix(0.1111111111111111,0,0,0.1111111111111111,33.11111111111111,0)" xlink:href="#i"/><use transform="matrix(0.1111111111111111,0,0,0.1111111111111111,55.33333333333333,0)" xlink:href="#t"/><use transform="matrix(0.1111111111111111,0,0,0.1111111111111111,75.33333333333333,0)" xlink:href="#y"/></g></defs></g></svg>