<?xml version="1.0" encoding="UTF-8"?>
<svg width="1200pt" height="1200pt" version="1.1" viewBox="0 0 1200 1200" xmlns="http://www.w3.org/2000/svg">
 <path d="m602 138.18h-173.27c-6.3633 0-11.453 5.0898-11.453 11.453s5.0898 11.453 11.453 11.453h173.27c6.3633 0 11.453-5.0898 11.453-11.453-0.17969-6.3633-5.2695-11.453-11.453-11.453z"/>
 <path d="m841.82 97.09c-14.727-4.1836-30.727-1.0898-44 8.1836-13.09 9.2734-21.637 23.816-22.363 38.727-1.4531 25.453 17.637 49.816 42.727 54.184 2.9102 0.54688 5.6367 0.72656 8.5469 0.72656 22.184 0 43.816-15.09 50.363-36.91 3.6367-12.184 1.8164-26.727-5.2734-39.637-6.9062-12.547-17.816-21.816-30-25.273z"/>
 <path d="m708.91 97.09c-14.727-4.1836-30.727-1.2734-44 8.1836-13.273 9.2734-21.637 23.816-22.363 38.727-1.4531 25.453 17.637 49.816 42.727 54.184 2.9102 0.54688 5.6367 0.72656 8.5469 0.72656 22.184 0 43.816-15.09 50.363-36.91 3.6367-12.184 1.6367-26.727-5.2734-39.637-6.9102-12.547-17.82-21.816-30-25.273zm13.453 58.363c-4 13.273-19.453 22.547-33.09 20.184-13.637-2.3633-24.727-16.547-24-30.363 0.54687-8 5.2734-16 12.91-21.453 5.4531-3.8164 11.453-5.8164 17.453-5.8164 2.3633 0 4.7266 0.36328 6.9102 0.91016 6.3633 1.8164 12.184 7.0898 16.184 14.363 4.1797 7.6328 5.6328 15.996 3.6328 22.176z"/>
 <path d="m613.27 403.82c0-6.3633-5.0898-11.453-11.453-11.453h-173.27c-6.3633 0-11.453 5.0898-11.453 11.453 0 6.3633 5.0898 11.453 11.453 11.453h173.27c6.3633 0.003907 11.453-5.0859 11.453-11.453z"/>
 <path d="m818.18 452.36c2.9102 0.54688 5.6367 0.72656 8.5469 0.72656 22.184 0 43.816-15.09 50.363-36.91 3.6367-12.184 1.8164-26.727-5.2734-39.637-6.9102-12.727-17.816-22-30-25.453-14.727-4.1836-30.727-1.0898-44 8.1836-13.09 9.2734-21.637 23.816-22.363 38.727-1.6406 25.637 17.633 50 42.727 54.363z"/>
 <path d="m685.27 452.36c2.9102 0.54688 5.6367 0.72656 8.5469 0.72656 22.184 0 43.816-15.09 50.363-36.91 3.6367-12.184 1.6367-26.727-5.2734-39.637-6.9102-12.727-17.816-22-30-25.453-14.727-4.1836-30.727-1.2734-44 8.1836-13.273 9.2734-21.637 23.816-22.363 38.727-1.457 25.637 17.637 50 42.727 54.363zm-7.0898-74.18c5.4531-3.8164 11.453-5.8164 17.453-5.8164 2.3633 0 4.7266 0.36328 6.9102 0.91016 6.3633 1.8164 12.184 7.0898 16.184 14.363 4 7.4531 5.4531 15.816 3.4531 22-4 13.273-19.453 22.547-33.09 20.184s-24.727-16.547-24-30.363c0.72266-8.0078 5.6328-16.008 13.09-21.277z"/>
 <path d="m428.73 669.45h173.27c6.3633 0 11.453-5.0898 11.453-11.453s-5.0898-11.453-11.453-11.453h-173.27c-6.3633 0-11.453 5.0898-11.453 11.453s5.0898 11.453 11.453 11.453z"/>
 <path d="m1089.8 681.82c18.184-39.816 18.91-69.637 2.5469-90.91-14-18.184-40-26.363-66.184-20.727-22.184 4.7266-40.547 17.09-57.637 29.453-4.1836 3.0898-8.1836 6.3633-12.363 9.6367v-8.9102c0.54687-14-4.5469-27.273-14.184-37.453-9.6367-10.184-22.727-15.637-36.91-15.637l-83.27 0.003907v-21.273-16.727h78.727c27.453 0 49.816-21.453 51.09-48.91l4.5469-114.18c0.54687-14-4.5469-27.273-14.184-37.453-9.6367-10.184-22.727-15.637-36.91-15.637h-83.27v-21.09-16.727h78.727c27.453 0 49.816-21.453 51.09-48.91l4.5469-114.18c0.54687-14-4.5469-27.273-14.184-37.453-9.6367-10.184-22.727-15.637-36.91-15.637h-512.36c-27.453 0-49.816 21.453-51.09 48.91l-4.5469 114.18c-0.54688 14 4.5469 27.273 14.184 37.453 9.6367 10.184 22.727 15.637 36.91 15.637h42.91v17.816 20h-38.367c-27.453 0-49.816 21.453-51.09 48.91l-4.5469 114.18c-0.54688 14 4.5469 27.273 14.184 37.453 9.6367 10.184 22.727 15.637 36.91 15.637h42.91v17.637 20.184l-38.367-0.003906c-27.453 0-49.816 21.453-51.09 49.09l-4.3633 124.73c-33.273 16.363-59.637 39.453-76.184 67.453-10.91-5.8164-22.727-10.363-35.453-11.816-28.91-3.4531-60 8.1836-85.816 32-12.363 11.273-23.816 25.453-36 44.547-12.363 19.273-10 44.184 5.8164 60.727l217.27 225.09c14.184 14.727 32.91 22 51.637 22 16.91 0 34-6 47.816-18.184l30.727-27.453c22.363-19.816 46.184-43.816 46.547-75.453 0.18359-15.637-5.4531-29.453-13.816-41.816 24.547-12.363 53.816-12.363 79.816-10.363 15.816 1.0898 32.184 3.6367 47.816 6 17.816 2.7266 36.184 5.6367 54.727 6.5469 65.453 3.6367 135.64-15.273 197.82-53.453 53.816-32.91 103.45-80.547 147.45-141.45 28.367-38.367 52.551-80.004 72.367-123.46zm-564.36-154.73v-17.637h201.82v17.637 20.184h-201.82v-20.184zm0-254v-17.816h201.82v17.816 20h-201.82v-20zm-157.64-49.453c-5.2734-5.6367-8.1836-12.91-7.8164-20.547l4.5469-114.18c0.54688-15.09 12.91-27.09 28.184-27.09h512.55c7.8164 0 14.91 3.0898 20.363 8.7266s8.1836 12.91 7.8164 20.547l-4.5469 114.18c-0.54688 15.09-12.91 27.09-28.184 27.09h-512.73c-7.6367 0-14.91-3.0898-20.184-8.7266zm0 254.18c-5.2734-5.6367-8.1836-12.91-7.8164-20.547l4.5469-114.18c0.54688-15.09 12.91-27.09 28.184-27.09h512.55c7.8164 0 14.91 3.0898 20.363 8.7266 5.2734 5.6367 8.1836 12.91 7.8164 20.547l-4.5469 114.18c-0.54688 15.09-12.91 27.09-28.184 27.09h-161.82l-224.91 0.003906h-126c-7.6367 0-14.91-3.0938-20.184-8.7305zm-3.2695 119.46c0.54688-15.09 12.91-27.09 28.184-27.09h512.55c7.8164 0 14.91 3.0898 20.363 8.7266 5.2734 5.6367 8.1836 12.91 7.8164 21.09v26.91c-21.09 16.91-41.09 34.91-60.547 53.453 1.8164-3.0898 3.2734-6.3633 4.3633-9.8164 3.6367-12.184 1.8164-26.727-5.2734-39.637-6.9102-12.727-17.816-22-30-25.453-14.727-4.1836-30.727-1.0898-44 8.1836-13.09 9.2734-21.637 23.816-22.363 38.727-1.4531 25.453 17.637 49.816 42.727 54.184 2.9102 0.54688 5.6367 0.72656 8.5469 0.72656 8.7266 0 17.273-2.3633 24.91-6.5469-8.9102 9.0898-17.453 18.547-25.816 28-8.5469-12.547-22-22.91-38.363-29.09-18.547-6.9102-38-8-55.637-8.5469 5.6367-5.8164 10.184-12.727 12.547-20.547 3.6367-12.184 1.6367-26.727-5.2734-39.637-6.9102-12.727-17.816-22-30-25.453-14.727-4.1836-30.727-1.2734-44 8.1836-13.273 9.2734-21.637 23.816-22.363 38.727-0.72656 13.637 4.5469 26.91 13.273 36.91-54.363-0.72656-105.09-0.36328-153.09 1.0898-44.547 1.2734-91.637 3.8164-135.82 18.547-2.1836 0.72656-4.1836 1.6367-6.3633 2.3633zm300.91 56.543c0.54688-8 5.2734-16 12.91-21.453 5.4531-3.8164 11.453-5.8164 17.453-5.8164 2.3633 0 4.7266 0.36328 6.9102 0.91016 6.3633 1.8164 12.184 7.0898 16.184 14.363 4 7.4531 5.4531 15.816 3.4531 22-4 13.273-19.453 22.547-33.09 20.184-13.457-2.3672-24.727-16.551-23.82-30.188zm-301.45 411.64c-5.6367-10.547-6.5469-26.363 4.5469-38 6.1836-6.3633 12.91-8.1836 18.727-8.1836 6.3633 0 11.816 2.3633 14.184 3.4531 10.91 5.4531 20.727 17.453 18.184 32.184-2.1836 12.547-12.727 23.09-25.09 25.273-12.734 2.3672-24.188-3.0898-30.551-14.727zm494.18-138c-58.363 35.816-124 53.637-184.55 50.184-17.453-0.91016-35.273-3.8164-52.547-6.3633-16.184-2.5469-32.91-5.0898-49.637-6.3633-30.727-2.1836-65.637-1.8164-96 15.273-5.4531-5.8164-11.273-11.453-16.91-16.547l-148.91-137.64c-8.5469-7.8164-18.363-16.91-29.453-25.09 18.184-31.453 51.09-56.363 93.637-70.363 41.273-13.637 86.547-16 129.45-17.273 67.816-2 140.55-1.8164 222.36 0.54687 17.273 0.54688 36.727 1.0898 53.637 7.2734 16.91 6.1836 29.09 18 32.727 31.453 5.4531 20.184-8.7266 41.273-25.453 51.816-20 12.547-45.637 15.637-68 17.453-39.816 3.2734-80.363 3.6367-120.36 1.0898-6.1836-0.18359-11.816 4.3633-12.184 10.727-0.36328 6.3633 4.3633 11.816 10.727 12.184 17.816 1.0898 35.637 1.6367 53.453 1.6367 23.453 0 46.91-0.91016 70.184-2.9102 25.09-2 54-5.4531 78.363-20.91 21.816-13.816 41.637-41.637 36.363-72 43.816-49.816 92.91-94.91 146.55-133.82 14.91-10.91 31.09-21.816 48.91-25.637 14.547-3.0898 33.453-0.54688 43.273 12.363 10.727 14 9.0898 36-5.2734 67.453-19.09 42.184-42.547 82.363-69.816 119.82-41.816 58.734-89.273 104.37-140.54 135.64z"/>
</svg>
