<?xml version="1.0" encoding="UTF-8"?>
<svg width="1200pt" height="1200pt" version="1.1" viewBox="0 0 1200 1200" xmlns="http://www.w3.org/2000/svg">
 <path d="m611.45 567.64c58.363 0 105.82-47.453 105.82-106 0-58.363-47.453-105.82-105.82-105.82s-106 47.453-106 105.82 47.457 106 106 106zm0-176.91c39.09 0 70.91 31.816 70.91 70.91 0 39.273-31.816 71.09-70.91 71.09-39.273 0-71.09-31.816-71.09-71.09 0-39.09 31.82-70.91 71.09-70.91z"/>
 <path d="m1099.3 504.55c16.727-29.637 25.453-62.91 25.453-97.273 0-110-89.637-199.45-199.82-199.45-24.547 0-48.363 4.3633-71.09 13.09-47.453-111.64-157.82-185.45-280.36-185.45-167.82 0-304.18 136.55-304.18 304.18 0 19.816 1.8164 39.453 5.6367 58.727-138.73 1.0859-251.64 114.54-251.64 253.82 0 97.816 57.273 188 146 229.64 8.7266 4 19.09 0.36328 23.273-8.3633 4-8.7266 0.36328-19.09-8.3633-23.273-76.547-35.82-126-113.64-126-198 0-120.73 98-218.91 218.73-218.91 6.3633 0 12.727 0.36328 18.91 0.91016 6 0.54688 11.273-1.8164 14.91-6.1836 3.6367-4.3633 4.9102-10.363 3.4531-15.816-6.5469-23.637-9.8164-48-9.8164-72.547 0-148.55 120.73-269.27 269.27-269.27 114.18 0 216.36 72.184 254.36 179.64 1.6367 4.7266 5.2734 8.5469 9.8164 10.363 4.7266 1.8164 9.8164 1.6367 14.363-0.54688 22.91-11.273 47.453-17.09 72.91-17.09 90.91 0 164.91 73.816 164.91 164.55 0 32.547-9.6367 64.184-27.816 91.273-5.0898 7.6367-3.4531 18 3.8164 23.637 48.184 37.273 75.816 93.273 75.816 154 0 83.273-53.09 157.27-131.82 184.18-9.0898 3.0898-14 13.09-10.91 22.184 2.5469 7.2734 9.2734 11.816 16.547 11.816 1.8164 0 3.8164-0.36328 5.6367-0.91016 93.09-31.816 155.45-119.09 155.45-217.27-0.003907-66.367-28.004-128-77.457-171.64z"/>
 <path d="m935.45 584.18h-132.36l-9.6367-18.91c8.5469-14.91 15.273-31.09 20-47.816l32.547-10.547c13.273-4.3633 22.184-16.547 22.184-30.547v-29.273c0-14-8.9102-26.184-22.184-30.547l-32.547-10.547c-4.5469-16.91-11.273-32.91-19.816-47.816l15.637-30.363c6.3633-12.363 4-27.453-5.8164-37.273l-20.727-20.727c-9.8164-9.8164-24.727-12.184-37.273-5.8164l-30.363 15.637c-15.09-8.7266-31.09-15.273-47.816-19.816l-10.547-32.547c-4.3633-13.273-16.547-22.184-30.547-22.184h-29.273c-14 0-26.184 8.9102-30.547 22.184l-10.547 32.547c-16.91 4.5469-32.91 11.273-47.816 19.816l-30.363-15.637c-12.547-6.3633-27.453-4-37.273 5.8164l-20.727 20.727c-9.8164 9.8164-12.184 24.91-5.8164 37.273l15.637 30.363c-8.5469 14.91-15.273 31.09-20 47.816l-32.363 10.547c-13.273 4.3633-22.184 16.547-22.184 30.547v29.273c0 14 8.9102 26.184 22.184 30.547l32.363 10.547c4.5469 16.727 11.273 32.727 19.816 48l-9.6367 18.91h-154.91c-30 0-54.363 24.363-54.363 54.363v471.64c0 30 24.363 54.363 54.363 54.363h670.91c30 0 54.363-24.363 54.363-54.363v-471.82c-0.18359-30-24.547-54.363-54.547-54.363zm-471.64-28.91c-10.91-17.273-18.547-35.816-22.91-55.273-1.2734-6-5.8164-10.91-11.637-12.91l-39.637-12.91 0.003907-25.09 39.637-12.727c5.8164-1.8164 10.363-6.7266 11.637-12.727 4.3633-19.816 12.184-38.363 22.91-55.09 3.4531-5.2734 3.6367-11.816 0.91016-17.453l-19.09-37.273 17.816-17.816 37.273 19.09c5.6367 2.9102 12.184 2.5469 17.453-0.91016 16.727-10.727 35.273-18.547 55.09-22.91 6-1.2734 10.91-5.8164 12.727-11.637l12.91-39.637h25.09l12.727 39.816c1.8164 6 6.7266 10.363 12.91 11.637 19.816 4.3633 38.184 12 55.09 22.91 5.2734 3.4531 11.816 3.6367 17.453 0.91016l37.273-19.09 17.816 17.816-19.09 37.273c-2.9102 5.4531-2.5469 12.184 0.91016 17.453 10.91 16.727 18.547 35.273 22.91 55.09 1.2734 6 5.8164 10.91 11.637 12.91l39.816 12.727v25.09l-39.637 12.91c-5.8164 1.8164-10.363 6.7266-11.637 12.727-4.3633 19.816-12.184 38.363-22.91 55.09-3.4531 5.2734-3.6367 11.816-0.91016 17.453l6 11.637-305.63 0.003906 6-11.637c2.7266-5.6367 2.3633-12.363-0.91016-17.453zm491.09 554.91c0 10.727-8.7266 19.453-19.453 19.453h-670.91c-10.727 0-19.453-8.7266-19.453-19.453l-0.003906-471.64c0-10.727 8.7266-19.453 19.453-19.453h670.91c10.727 0 19.453 8.7266 19.453 19.453z"/>
 <path d="m398.18 745.27h-5.6367v-44.363c0-9.6367-7.8164-17.453-17.453-17.453s-17.453 7.8164-17.453 17.453v44.363h-5.6367c-16.184 0-29.273 13.09-29.273 29.273v81.273c0 16.184 13.09 29.273 29.273 29.273h5.6367v162.73c0 9.6367 7.8164 17.453 17.453 17.453s17.453-7.8164 17.453-17.453v-162.73h5.6367c16.184 0 29.273-13.09 29.273-29.273l-0.003906-81.273c0-16.184-13.27-29.273-29.27-29.273zm-5.6367 104.73h-34.91v-70h34.91z"/>
 <path d="m548.18 824.73h-5.6367v-123.82c0-9.6367-7.8164-17.453-17.453-17.453s-17.453 7.8164-17.453 17.453v123.82h-5.8242c-16.184 0-29.273 13.09-29.273 29.273v81.273c0 16.184 13.09 29.273 29.273 29.273h5.6367v83.273c0 9.6367 7.8164 17.453 17.453 17.453s17.453-7.8164 17.453-17.453v-83.273h5.6367c16.184 0 29.273-13.09 29.273-29.273v-81.273c0.003907-16-13.086-29.273-29.086-29.273zm-40.547 34.91h34.91v70h-34.727l-0.003906-70z"/>
 <path d="m698.18 731.82h-5.6367v-30.91c0-9.6367-7.8164-17.453-17.453-17.453s-17.453 7.8164-17.453 17.453v30.91h-5.6367c-16.184 0-29.273 13.09-29.273 29.273v81.273c0 16.184 13.09 29.273 29.273 29.273h5.6367v176.18c0 9.6367 7.8164 17.453 17.453 17.453s17.453-7.8164 17.453-17.453v-176.18h5.6367c16.184 0 29.273-13.09 29.273-29.273v-81.273c-0.18359-16.18-13.273-29.273-29.273-29.273zm-40.73 34.91h17.09 0.36328 0.36328 16.91v70h-34.91l0.003907-70z"/>
 <path d="m848 804.55h-5.8164v-103.64c0-9.6367-7.8164-17.453-17.453-17.453s-17.453 7.8164-17.453 17.453v103.64h-5.4609c-16.184 0-29.273 13.09-29.273 29.273v81.273c0 16.184 13.09 29.273 29.273 29.273h5.6367v103.45c0 9.6367 7.8164 17.453 17.453 17.453s17.453-7.8164 17.453-17.453v-103.45h5.8164c16.184 0 29.273-13.09 29.273-29.273v-81.273c-0.17578-16.184-13.266-29.273-29.449-29.273zm-5.6367 104.73h-34.91v-70h17.09 0.36328 0.36328 17.273l0.003906 70z"/>
</svg>
