<svg xmlns="http://www.w3.org/2000/svg" viewBox="447.7401140314438 377.97670180107565 535.097471417775 280.8077058949189"> <g transform="rotate(270 561.6138628107407 518.3805547485351)"><svg xmlns="http://www.w3.org/2000/svg" xmlns:xlink="http://www.w3.org/1999/xlink" version="1.1" id="Circuits_Plant" x="491.21000986328124" y="474.50680596923826" viewBox="0 0 909.7000732421875 566.9000244140625" xml:space="preserve" height="87.74749755859375" width="140.80770589491894" preserveAspectRatio="xMinYMin" enable-background="new 0 0 909.6 566.9" style="overflow: visible;"><path id="_x35_th_circuit" class="st0" d="M657,131c-41.7,0.8-50.5,57.8-11.7,71.5v66.4L527.3,386.9c-2.1,2.1-3.3,4.9-3.4,7.8c0,0.1,0,0.3,0,0.4v160.1   c0.5,15.4,22.8,15.4,23.3,0V400l118-118c2-2,3.3-4.7,3.5-7.7c0-0.2,0-0.4,0-0.7v-71.1C707.5,188.8,698.7,131.8,657,131z M657,181.1   c-7.4,0-13.4-6-13.4-13.4c0.7-17.7,26.1-17.7,26.7,0C670.3,175.1,664.3,181.1,657,181.1z" style="fill: #def5c6; fill-opacity: 1;"></path><path id="_x34_th_circuit" class="st0" d="M507.4,326c-4.6,4.6-4.6,11.9,0,16.5c4.6,4.6,11.9,4.6,16.5,0l60.4-60.5c2.2-2.2,3.4-5.2,3.4-8.2V152.4   c38.8-13.7,30-70.6-11.7-71.5c-41.7,0.8-50.5,57.8-11.7,71.5v116.5L507.4,326z M562.6,117.7c0-7.4,6-13.4,13.4-13.4   c17.7,0.7,17.7,26.1,0,26.7C568.6,131,562.6,125,562.6,117.7z" style="fill: #def5c6; fill-opacity: 1;"></path><path id="_x33_rd_circuit" class="st0" d="M454.8,0c-41.5,0.8-50.5,57.5-11.9,71.4v483.9c0.5,15.4,22.8,15.4,23.3,0V71.6C505.3,58.1,496.6,0.8,454.8,0z    M454.8,50c-7.4,0-13.4-6-13.4-13.4c0.7-17.7,26.1-17.7,26.7,0C468.2,44.1,462.2,50,454.8,50z" style="fill: #def5c6; fill-opacity: 1;"></path><path id="_x32_nd_circuit" class="st0" d="M344.7,268.9V152.4c38.8-13.7,30-70.6-11.7-71.5c-41.7,0.8-50.5,57.8-11.7,71.5v121.3c0,3.1,1.2,6.1,3.4,8.2   l60.4,60.5c4.6,4.6,11.9,4.6,16.5,0c4.6-4.6,4.6-11.9,0-16.5L344.7,268.9z M333.1,131c-17.7-0.7-17.7-26.1,0-26.7   C350.8,105,350.8,130.4,333.1,131z" style="fill: #def5c6; fill-opacity: 1;"></path><path id="_x31_st_circuit" class="st0" d="M240.4,202.5v71.1c0,0.2,0,0.4,0,0.7c0.2,3,1.5,5.8,3.5,7.7l118,118v155.2c0.5,15.4,22.8,15.4,23.3,0V395.2   c0-0.1,0-0.3,0-0.4c-0.1-2.9-1.3-5.7-3.4-7.8L263.7,268.9v-66.4c38.8-13.7,30-70.6-11.7-71.5C210.4,131.8,201.6,188.8,240.4,202.5z    M238.7,167.7c0.7-17.7,26.1-17.7,26.7,0C264.8,185.4,239.4,185.4,238.7,167.7z" style="fill: #def5c6; fill-opacity: 1;"></path><path id="right_leaf" class="st1" d="M609.3,465.1v101.8h101.8c30.9,0,60.6-12.3,82.5-34.2l15.9-15.9l50.1-50.1l15.9-15.9  c21.9-21.9,34.2-51.5,34.2-82.5V266.6H807.7c-30.9,0-60.6,12.3-82.5,34.2l-15.9,15.9l-50.1,50.1l-15.9,15.9  C621.6,404.5,609.3,434.1,609.3,465.1z" style="fill: #b1cf5f; fill-opacity: 1;"></path><path id="left_leaf" class="st1" d="M300.3,465.1v101.8H198.5c-30.9,0-60.6-12.3-82.5-34.2l-15.9-15.9L50,466.8l-15.9-15.9  C12.3,429.1,0,399.4,0,368.5V266.6h101.8c30.9,0,60.6,12.3,82.5,34.2l15.9,15.9l50.1,50.1l15.9,15.9  C288,404.5,300.3,434.1,300.3,465.1z" style="fill: #b1cf5f; fill-opacity: 1;"></path></svg></g> <svg y="481.8807830810547" viewBox="6.199999809265137 27.8700008392334 289.3499755859375 90.23999786376953" x="623.4876098632812" height="90.23999786376953" width="289.3499755859375" xmlns="http://www.w3.org/2000/svg" style="overflow: visible;"><g fill="#def5c6" fill-opacity="1" style=""><path d="M6.20 31.64L44.94 31.64L44.94 41.80L18.79 41.80L18.79 57.89L38.83 57.89L38.83 67.87L18.79 67.87L18.79 94.38L6.20 94.38L6.20 31.64ZM50.25 27.87L62.83 27.87L62.83 94.38L50.25 94.38L50.25 27.87ZM105.89 44.58L119.28 44.58L88.45 117.93L75.06 117.93L85.84 93.12L65.89 44.58L80.00 44.58L92.85 79.37L105.89 44.58ZM148.22 54.92L137.08 54.92L137.08 79.01Q137.08 81.53 138.29 82.65Q139.51 83.78 142.38 83.78L142.38 83.78L148.22 83.78L148.22 94.38L140.31 94.38Q124.40 94.38 124.40 78.92L124.40 78.92L124.40 54.92L118.47 54.92L118.47 44.58L124.40 44.58L124.40 32.27L137.08 32.27L137.08 44.58L148.22 44.58L148.22 54.92ZM166.29 52.31Q168.72 48.36 172.63 46.11Q176.54 43.87 181.57 43.87L181.57 43.87L181.57 57.08L178.25 57.08Q172.31 57.08 169.30 59.87Q166.29 62.65 166.29 69.57L166.29 69.57L166.29 94.38L153.71 94.38L153.71 44.58L166.29 44.58L166.29 52.31ZM183.19 69.30Q183.19 61.75 186.20 55.91Q189.21 50.07 194.38 46.92Q199.55 43.78 205.93 43.78L205.93 43.78Q211.51 43.78 215.69 46.02Q219.86 48.27 222.38 51.69L222.38 51.69L222.38 44.58L235.06 44.58L235.06 94.38L222.38 94.38L222.38 87.10Q219.95 90.61 215.69 92.90Q211.42 95.19 205.84 95.19L205.84 95.19Q199.55 95.19 194.38 91.95Q189.21 88.72 186.20 82.83Q183.19 76.94 183.19 69.30L183.19 69.30ZM222.38 69.48Q222.38 64.90 220.58 61.62Q218.79 58.34 215.73 56.58Q212.67 54.83 209.17 54.83L209.17 54.83Q205.66 54.83 202.70 56.54Q199.73 58.25 197.89 61.53Q196.04 64.81 196.04 69.30L196.04 69.30Q196.04 73.80 197.89 77.17Q199.73 80.54 202.74 82.34Q205.75 84.13 209.17 84.13L209.17 84.13Q212.67 84.13 215.73 82.38Q218.79 80.63 220.58 77.35Q222.38 74.07 222.38 69.48L222.38 69.48ZM256.36 51.78Q258.79 48.36 263.06 46.07Q267.33 43.78 272.81 43.78L272.81 43.78Q279.19 43.78 284.36 46.92Q289.53 50.07 292.54 55.87Q295.55 61.66 295.55 69.30L295.55 69.30Q295.55 76.94 292.54 82.83Q289.53 88.72 284.36 91.95Q279.19 95.19 272.81 95.19L272.81 95.19Q267.33 95.19 263.15 92.94Q258.97 90.70 256.36 87.28L256.36 87.28L256.36 118.11L243.78 118.11L243.78 44.58L256.36 44.58L256.36 51.78ZM282.70 69.30Q282.70 64.81 280.85 61.53Q279.01 58.25 276.00 56.54Q272.99 54.83 269.48 54.83L269.48 54.83Q266.07 54.83 263.06 56.58Q260.04 58.34 258.20 61.66Q256.36 64.99 256.36 69.48L256.36 69.48Q256.36 73.98 258.20 77.30Q260.04 80.63 263.06 82.38Q266.07 84.13 269.48 84.13L269.48 84.13Q272.99 84.13 276.00 82.34Q279.01 80.54 280.85 77.21Q282.70 73.89 282.70 69.30L282.70 69.30Z" transform="translate(0, 0)"></path></g></svg></svg>